# File created by Blade
# Date/Time:  Thu Sep 25 14:26:36 2014
# Frame Rate: 120.000 fps
#------------------------------------------------------
:FULLY-SPECIFIED
:DEGREES
1516
root 2.087471 27.568929 -2.309977 11.126635 85.582919 101.744436
Spine -52.187810 2.433590 -1.443238
Head -100.769563 -0.389507 1.947597
LeftShoulder -27.762170 4.364816 41.542510
LeftArm 134.472612 -65.172303 -128.853695
LeftForeArm 40.964547 -0.000000 54.013993
LeftHand -34.336219 0.000000 119.023854
LeftHandThumb1 -26.253704 0.000000 33.147579
RightShoulder -29.122679 26.154305 -59.999407
RightArm 208.307956 112.955058 213.678735
RightForeArm -47.961903 -0.000000 66.955686
RightHand -9.675977 -0.000000 -81.675394
RightHandThumb1 -24.326973 -0.000000 -32.862282
LeftUpLeg 37.775485 0.404314 24.737051
LeftLeg 83.217214 -0.000000 -0.000000
LeftFoot 18.318427 14.432206 -22.628063
LeftToeBase -52.645256 -0.000000 0.000000
RightUpLeg 32.813015 6.564130 -24.069824
RightLeg 85.753996 -0.000000 -0.000000
RightFoot 27.781988 -17.182500 -6.748849
RightToeBase -40.809537 -0.000000 0.000000
1517
root 2.154608 27.593903 -2.306667 9.780176 85.622598 100.469741
Spine -52.230013 2.664752 -1.412222
Head -100.908596 -0.363471 1.854862
LeftShoulder -27.737457 4.545615 41.460674
LeftArm 133.476222 -65.368972 -127.825316
LeftForeArm 40.565077 0.000000 53.593257
LeftHand -34.125295 0.000000 119.473386
LeftHandThumb1 -26.253704 0.000000 33.147579
RightShoulder -29.127560 25.972717 -59.703849
RightArm 209.336510 113.251100 213.837425
RightForeArm -47.950457 -0.000000 66.447213
RightHand -9.491731 -0.000000 -81.520412
RightHandThumb1 -24.326973 -0.000000 -32.862282
LeftUpLeg 37.965812 0.268842 24.778725
LeftLeg 83.195233 -0.000000 -0.000000
LeftFoot 18.302841 14.465017 -22.865814
LeftToeBase -52.515719 -0.000000 0.000000
RightUpLeg 33.109115 6.551221 -24.104143
RightLeg 85.687776 -0.000000 -0.000000
RightFoot 27.448565 -17.172567 -6.920583
RightToeBase -40.483803 -0.000000 0.000000
1518
root 2.219517 27.615150 -2.307692 7.937559 85.593977 98.656421
Spine -52.311925 2.867629 -1.237891
Head -101.081128 -0.088306 1.858790
LeftShoulder -27.824546 4.304521 41.391493
LeftArm 131.784194 -65.754816 -125.771399
LeftForeArm 40.235416 -0.000000 52.963276
LeftHand -33.837352 -0.000000 119.885392
LeftHandThumb1 -26.253704 0.000000 33.147579
RightShoulder -28.805021 26.030825 -59.343875
RightArm 209.022869 113.542795 212.595345
RightForeArm -47.706099 -0.000000 65.904125
RightHand -9.521574 -0.000000 -81.787077
RightHandThumb1 -24.326973 -0.000000 -32.862282
LeftUpLeg 38.147418 0.199399 24.837310
LeftLeg 83.172149 -0.000000 -0.000000
LeftFoot 18.440140 14.415364 -22.917244
LeftToeBase -52.622201 -0.000000 0.000000
RightUpLeg 33.282344 6.583406 -24.096441
RightLeg 85.613371 -0.000000 -0.000000
RightFoot 27.605825 -17.154444 -7.498560
RightToeBase -40.989320 -0.000000 0.000000
1519
root 2.276842 27.625906 -2.304560 6.293895 85.633309 97.033573
Spine -52.387307 3.090163 -1.167630
Head -101.356319 -0.130022 1.850795
LeftShoulder -27.832704 4.200059 41.198543
LeftArm 130.568357 -65.903688 -124.247528
LeftForeArm 39.991938 -0.000000 52.473702
LeftHand -33.694584 -0.000000 120.192271
LeftHandThumb1 -26.253704 0.000000 33.147579
RightShoulder -29.014615 25.839715 -59.194310
RightArm 210.224672 113.999367 213.117877
RightForeArm -48.189997 -0.000000 65.407806
RightHand -10.072473 -0.000000 -82.038085
RightHandThumb1 -24.326973 -0.000000 -32.862282
LeftUpLeg 38.249812 -0.013734 24.815398
LeftLeg 83.218737 -0.000000 -0.000000
LeftFoot 18.582489 14.069646 -23.138295
LeftToeBase -52.794691 -0.000000 0.000000
RightUpLeg 33.431615 6.608030 -24.029815
RightLeg 85.609707 -0.000000 -0.000000
RightFoot 27.518468 -17.073240 -7.468513
RightToeBase -41.221500 -0.000000 0.000000
1520
root 2.329934 27.632851 -2.305752 5.511156 85.701806 96.254167
Spine -52.454250 3.150083 -1.121091
Head -101.636066 0.046838 1.833887
LeftShoulder -27.971018 4.086486 41.080838
LeftArm 129.345518 -65.975903 -122.673402
LeftForeArm 39.979885 0.000000 52.001016
LeftHand -33.790885 0.000000 120.646237
LeftHandThumb1 -26.253704 0.000000 33.147579
RightShoulder -29.034592 25.896697 -58.942833
RightArm 210.599983 114.458696 212.736204
RightForeArm -47.876605 -0.000000 65.008433
RightHand -10.267965 -0.000000 -82.497142
RightHandThumb1 -24.326973 -0.000000 -32.862282
LeftUpLeg 38.291509 -0.207279 24.727662
LeftLeg 83.276986 -0.000000 -0.000000
LeftFoot 18.690741 13.911546 -23.277258
LeftToeBase -53.020635 -0.000000 0.000000
RightUpLeg 33.542785 6.664446 -24.008608
RightLeg 85.650895 -0.000000 -0.000000
RightFoot 27.163109 -16.946335 -6.703504
RightToeBase -41.251848 -0.000000 0.000000
1521
root 2.386410 27.640761 -2.309643 4.700133 85.763232 95.511861
Spine -52.380321 3.252425 -1.050138
Head -101.991718 -0.082201 1.956531
LeftShoulder -28.141457 4.191780 40.909809
LeftArm 128.628900 -65.864475 -121.830873
LeftForeArm 39.877958 0.000000 51.663068
LeftHand -33.720701 -0.000000 120.851237
LeftHandThumb1 -26.253704 0.000000 33.147579
RightShoulder -29.255164 25.975415 -59.016928
RightArm 211.182076 114.866994 212.943687
RightForeArm -47.637667 -0.000000 64.714701
RightHand -9.871783 0.000000 -82.396009
RightHandThumb1 -24.326973 -0.000000 -32.862282
LeftUpLeg 38.409705 -0.412070 24.641424
LeftLeg 83.318787 -0.000000 -0.000000
LeftFoot 18.806184 13.793958 -23.411061
LeftToeBase -53.378562 -0.000000 0.000000
RightUpLeg 33.715650 6.740089 -23.987095
RightLeg 85.653227 -0.000000 -0.000000
RightFoot 27.239783 -16.699692 -6.618521
RightToeBase -41.828960 -0.000000 0.000000
1522
root 2.433905 27.641026 -2.312202 4.372086 85.852027 95.165254
Spine -52.443740 3.290829 -1.054323
Head -102.377601 -0.287241 2.207430
LeftShoulder -28.100977 4.053474 40.842457
LeftArm 127.839239 -65.987475 -120.778786
LeftForeArm 39.935462 -0.000000 51.283450
LeftHand -33.827860 -0.000000 121.144008
LeftHandThumb1 -26.253704 0.000000 33.147579
RightShoulder -29.187905 25.775548 -58.776108
RightArm 211.840093 114.828800 213.091830
RightForeArm -46.242312 -0.000000 64.530162
RightHand -8.614643 -0.000000 -82.515958
RightHandThumb1 -24.326973 -0.000000 -32.862282
LeftUpLeg 38.412342 -0.626890 24.492107
LeftLeg 83.387255 -0.000000 -0.000000
LeftFoot 18.885670 13.582858 -23.560964
LeftToeBase -53.746022 -0.000000 0.000000
RightUpLeg 33.782412 6.752990 -23.970546
RightLeg 85.679522 -0.000000 -0.000000
RightFoot 27.319462 -16.489440 -6.351548
RightToeBase -42.492994 -0.000000 0.000000
1523
root 2.477402 27.635479 -2.314462 5.449431 86.051598 96.225503
Spine -52.503676 3.092833 -1.136120
Head -102.634487 -0.030177 2.178839
LeftShoulder -28.037222 3.532902 40.770540
LeftArm 126.679633 -66.327357 -118.991973
LeftForeArm 39.772802 -0.000000 50.787057
LeftHand -33.770450 0.000000 121.334367
LeftHandThumb1 -26.253704 0.000000 33.147579
RightShoulder -29.194159 25.674803 -58.551255
RightArm 212.712401 114.920666 213.605531
RightForeArm -46.168212 0.000000 64.258946
RightHand -8.416265 -0.000000 -82.827640
RightHandThumb1 -24.326973 -0.000000 -32.862282
LeftUpLeg 38.326216 -0.946198 24.245685
LeftLeg 83.501940 -0.000000 -0.000000
LeftFoot 18.933789 13.327506 -23.563854
LeftToeBase -54.076412 -0.000000 0.000000
RightUpLeg 33.893233 6.671461 -24.040329
RightLeg 85.699446 -0.000000 -0.000000
RightFoot 27.386072 -16.244621 -6.012110
RightToeBase -43.352200 -0.000000 0.000000
1524
root 2.524959 27.632169 -2.316761 6.016707 86.161191 96.790315
Spine -52.529687 2.958146 -1.125900
Head -102.922466 -0.156904 2.497185
LeftShoulder -27.993124 3.116639 40.778513
LeftArm 125.841134 -66.472398 -117.682542
LeftForeArm 39.595295 -0.000000 50.313970
LeftHand -33.613340 0.000000 121.467245
LeftHandThumb1 -26.253704 0.000000 33.147579
RightShoulder -29.053579 25.669309 -58.404231
RightArm 213.065412 114.956449 213.733815
RightForeArm -46.222052 -0.000000 64.054850
RightHand -8.385709 -0.000000 -83.026005
RightHandThumb1 -24.326973 -0.000000 -32.862282
LeftUpLeg 38.333571 -1.187997 24.048795
LeftLeg 83.583976 -0.000000 -0.000000
LeftFoot 18.951325 13.107550 -23.881893
LeftToeBase -54.569083 -0.000000 0.000000
RightUpLeg 33.971776 6.681251 -24.078988
RightLeg 85.732252 -0.000000 -0.000000
RightFoot 27.520483 -16.000297 -5.730578
RightToeBase -44.034851 -0.000000 0.000000
1525
root 2.571635 27.629199 -2.322442 6.865056 86.290310 97.746038
Spine -52.300370 2.876853 -1.169097
Head -102.844905 0.511887 1.724035
LeftShoulder -28.131913 2.771507 40.638436
LeftArm 125.394481 -66.288959 -116.839315
LeftForeArm 39.845364 0.000000 49.930592
LeftHand -33.726397 -0.000000 121.510302
LeftHandThumb1 -26.253704 0.000000 33.147579
RightShoulder -29.446195 25.580710 -58.422001
RightArm 214.728630 115.075072 215.223622
RightForeArm -46.491542 0.000000 63.789378
RightHand -7.911934 -0.000000 -83.216040
RightHandThumb1 -24.326973 -0.000000 -32.862282
LeftUpLeg 38.431905 -1.458334 23.849865
LeftLeg 83.671300 -0.000000 -0.000000
LeftFoot 18.907923 12.939440 -23.993465
LeftToeBase -54.861535 -0.000000 0.000000
RightUpLeg 34.156168 6.698735 -24.142787
RightLeg 85.744661 -0.000000 -0.000000
RightFoot 27.740256 -15.774845 -5.650368
RightToeBase -44.938265 -0.000000 0.000000
